<svg xmlns="http://www.w3.org/2000/svg" viewBox="0 0 400 200" width="400" height="200">
  <rect width="400" height="200" fill="#fff0f0"/>
  <text x="200" y="20" text-anchor="middle" font-size="14" fill="#c53030" font-family="sans-serif">攻角-5° - 方向异常 ⚠</text>
  
  <path d="M 60 100 Q 100 120 180 110 T 340 100" stroke="#4a5568" stroke-width="12" fill="none" stroke-linecap="round" transform="rotate(5 200 100)"/>
  <path d="M 60 100 Q 100 120 180 110 T 340 100" stroke="#a0aec0" stroke-width="8" fill="none" stroke-linecap="round" transform="rotate(5 200 100)"/>
  
  <g stroke="#c53030" stroke-width="1.5" fill="none" opacity="0.7">
    <path d="M 50 55 Q 100 60 150 65 Q 180 75 210 95" stroke-dasharray="4,2"/>
    <path d="M 50 75 Q 100 80 140 88 Q 170 100 200 115" stroke-dasharray="4,2"/>
    <path d="M 50 145 Q 100 140 150 135 T 340 125" stroke-dasharray="4,2"/>
  </g>
  
  <path d="M 80 60 L 80 100" stroke="#c53030" stroke-width="2" stroke-dasharray="4,2"/>
  <text x="50" y="52" font-size="10" fill="#c53030" font-family="sans-serif">异常分离区</text>
  
  <rect x="120" y="130" width="160" height="40" rx="6" fill="#fc8181" opacity="0.9"/>
  <text x="200" y="148" text-anchor="middle" font-size="11" fill="white" font-family="sans-serif" font-weight="bold">方向符号写反？</text>
  <text x="200" y="165" text-anchor="middle" font-size="10" fill="white" font-family="sans-serif">负攻角不应有前缘分离</text>
  
  <text x="280" y="185" font-size="10" fill="#c53030" font-family="sans-serif">分离点20% — 异常</text>
</svg>
